<svg width="93" height="29" viewBox="0 0 93 29" fill="none" xmlns="http://www.w3.org/2000/svg">
<path d="M1.51705 23V5.54545H13.2784V8.58807H5.20739V12.7472H12.6733V15.7898H5.20739V19.9574H13.3125V23H1.51705ZM16.1442 23V9.90909H19.6044V12.2188H19.7578C20.0305 11.4517 20.4851 10.8466 21.1214 10.4034C21.7578 9.96023 22.5192 9.73864 23.4055 9.73864C24.3033 9.73864 25.0675 9.96307 25.6982 10.4119C26.3288 10.8551 26.7493 11.4574 26.9595 12.2188H27.0959C27.3629 11.4688 27.8459 10.8693 28.5447 10.4205C29.2493 9.96591 30.0817 9.73864 31.0419 9.73864C32.2635 9.73864 33.255 10.1278 34.0163 10.9062C34.7834 11.679 35.1669 12.7756 35.1669 14.196V23H31.5447V14.9119C31.5447 14.1847 31.3516 13.6392 30.9652 13.2756C30.5788 12.9119 30.0959 12.7301 29.5163 12.7301C28.8572 12.7301 28.343 12.9403 27.9737 13.3608C27.6044 13.7756 27.4197 14.3239 27.4197 15.0057V23H23.8999V14.8352C23.8999 14.1932 23.7152 13.6818 23.3459 13.3011C22.9822 12.9205 22.5021 12.7301 21.9055 12.7301C21.5021 12.7301 21.1385 12.8324 20.8146 13.0369C20.4964 13.2358 20.2436 13.517 20.0561 13.8807C19.8686 14.2386 19.7749 14.6591 19.7749 15.142V23H16.1442ZM38.0348 27.9091V9.90909H41.6143V12.108H41.7763C41.9354 11.7557 42.1655 11.3977 42.4666 11.0341C42.7734 10.6648 43.1712 10.358 43.6598 10.1136C44.1541 9.86364 44.7678 9.73864 45.5007 9.73864C46.4553 9.73864 47.3359 9.98864 48.1428 10.4886C48.9496 10.983 49.5945 11.7301 50.0774 12.7301C50.5604 13.7244 50.8018 14.9716 50.8018 16.4716C50.8018 17.9318 50.5661 19.1648 50.0945 20.1705C49.6286 21.1705 48.9922 21.929 48.1854 22.446C47.3842 22.9574 46.4865 23.2131 45.4922 23.2131C44.7876 23.2131 44.1882 23.0966 43.6939 22.8636C43.2053 22.6307 42.8047 22.3381 42.4922 21.9858C42.1797 21.6278 41.9411 21.267 41.7763 20.9034H41.6655V27.9091H38.0348ZM41.5888 16.4545C41.5888 17.233 41.6967 17.9119 41.9126 18.4915C42.1286 19.071 42.4411 19.5227 42.8501 19.8466C43.2592 20.1648 43.7564 20.3239 44.3416 20.3239C44.9325 20.3239 45.4325 20.1619 45.8416 19.8381C46.2507 19.5085 46.5604 19.054 46.7706 18.4744C46.9865 17.8892 47.0945 17.2159 47.0945 16.4545C47.0945 15.6989 46.9893 15.0341 46.7791 14.4602C46.5689 13.8864 46.2592 13.4375 45.8501 13.1136C45.4411 12.7898 44.9382 12.6278 44.3416 12.6278C43.7507 12.6278 43.2507 12.7841 42.8416 13.0966C42.4382 13.4091 42.1286 13.8523 41.9126 14.4261C41.6967 15 41.5888 15.6761 41.5888 16.4545ZM56.853 5.54545V23H53.2223V5.54545H56.853ZM65.6761 23.2557C64.3523 23.2557 63.2074 22.9744 62.2415 22.4119C61.2813 21.8437 60.5398 21.054 60.017 20.0426C59.4943 19.0256 59.233 17.8466 59.233 16.5057C59.233 15.1534 59.4943 13.9716 60.017 12.9602C60.5398 11.9432 61.2813 11.1534 62.2415 10.5909C63.2074 10.0227 64.3523 9.73864 65.6761 9.73864C67 9.73864 68.142 10.0227 69.1023 10.5909C70.0682 11.1534 70.8125 11.9432 71.3352 12.9602C71.858 13.9716 72.1193 15.1534 72.1193 16.5057C72.1193 17.8466 71.858 19.0256 71.3352 20.0426C70.8125 21.054 70.0682 21.8437 69.1023 22.4119C68.142 22.9744 67 23.2557 65.6761 23.2557ZM65.6932 20.4432C66.2955 20.4432 66.7983 20.2727 67.2017 19.9318C67.6051 19.5852 67.9091 19.1136 68.1136 18.517C68.3239 17.9205 68.429 17.2415 68.429 16.4801C68.429 15.7188 68.3239 15.0398 68.1136 14.4432C67.9091 13.8466 67.6051 13.375 67.2017 13.0284C66.7983 12.6818 66.2955 12.5085 65.6932 12.5085C65.0852 12.5085 64.5739 12.6818 64.1591 13.0284C63.75 13.375 63.4403 13.8466 63.2301 14.4432C63.0256 15.0398 62.9233 15.7188 62.9233 16.4801C62.9233 17.2415 63.0256 17.9205 63.2301 18.517C63.4403 19.1136 63.75 19.5852 64.1591 19.9318C64.5739 20.2727 65.0852 20.4432 65.6932 20.4432ZM76.2997 27.9091C75.8395 27.9091 75.4077 27.8722 75.0043 27.7983C74.6065 27.7301 74.277 27.642 74.0156 27.5341L74.8338 24.8239C75.2599 24.9545 75.6435 25.0256 75.9844 25.0369C76.331 25.0483 76.6293 24.9688 76.8793 24.7983C77.1349 24.6278 77.3423 24.3381 77.5014 23.929L77.7145 23.375L73.0185 9.90909H76.8366L79.5469 19.5227H79.6832L82.419 9.90909H86.2628L81.1747 24.4148C80.9304 25.1193 80.598 25.733 80.1776 26.2557C79.7628 26.7841 79.2372 27.1903 78.6009 27.4744C77.9645 27.7642 77.1974 27.9091 76.2997 27.9091ZM89.4226 23.2216C88.8601 23.2216 88.3771 23.0227 87.9737 22.625C87.576 22.2216 87.3771 21.7386 87.3771 21.1761C87.3771 20.6193 87.576 20.142 87.9737 19.7443C88.3771 19.3466 88.8601 19.1477 89.4226 19.1477C89.968 19.1477 90.4453 19.3466 90.8544 19.7443C91.2635 20.142 91.468 20.6193 91.468 21.1761C91.468 21.5511 91.3714 21.8949 91.1783 22.2074C90.9908 22.5142 90.7436 22.7614 90.4368 22.9489C90.13 23.1307 89.7919 23.2216 89.4226 23.2216Z" fill="#212832"/>
</svg>
